<svg xmlns="http://www.w3.org/2000/svg" width="344.417" height="150.38" viewBox="0 0 344.417 150.38">
  <g id="Group_47" data-name="Group 47" transform="translate(-5650.38 816.38)">
    <g id="Group_43" data-name="Group 43" transform="translate(5273 -2057)">
      <text id="Africa" transform="translate(387 1363)" font-size="112" font-family="Lobster-Regular, Lobster"><tspan x="0" y="0">Africa</tspan></text>
      <g id="Group_42" data-name="Group 42" transform="matrix(0.998, -0.07, 0.07, 0.998, 648.551, 1257.629)">
        <path id="Path_4" data-name="Path 4" d="M51.3,7.2c.085,1.258.358,2.5.33,3.752a.443.443,0,0,1-.614-.184c-.226-.355-.5-.681-.714-1.042-.18-.3-.3-.639-.458-.956a1.85,1.85,0,0,0-.219-.265,2.041,2.041,0,0,0-.061.377,1.469,1.469,0,0,0,.607,1.29.316.316,0,0,1,.082.078c.166.224.331.447.493.673a1.21,1.21,0,0,1,.334.949.321.321,0,0,0,.063.207c.139.213.3.414.433.629.27.427.529.859.792,1.29.093.152.174.31.275.456a.634.634,0,0,1,.057.656,1.689,1.689,0,0,0-.112.479c-.012.122.05.186.2.247a1.063,1.063,0,0,1,.423.425.314.314,0,0,0,.306.187c.232,0,.408.094.413.36a.825.825,0,0,0,.034.331.774.774,0,0,0,.281.369c.3.148.385.234.218.524a.851.851,0,0,0,.1,1.1.374.374,0,0,1,.046.234.926.926,0,0,0,.455.947c.214.122.5.254.541.578.009.067.214.095.254.175a3.046,3.046,0,0,1,.244.675,6.912,6.912,0,0,0,.131.854,2.171,2.171,0,0,0,.438.617c.138.16.359.268.454.444a.818.818,0,0,0,.646.456,1.092,1.092,0,0,1,.819.553,3.345,3.345,0,0,0,.465.563.364.364,0,0,0,.263.063c.192-.02.264.064.338.225a2.785,2.785,0,0,0,.363.517c.075.1.185.166.254.265.191.272.331.556.042.878a1.947,1.947,0,0,1,.255.191,2.87,2.87,0,0,1,.432.5.915.915,0,0,0,.989.465c.074-.016.188-.037.205-.084.113-.3.385-.214.6-.244a4.965,4.965,0,0,1,.55-.006,1.585,1.585,0,0,0,.682-.22,3.2,3.2,0,0,1,1.082-.2c.228-.023.463.029.693.021a1.543,1.543,0,0,0,.9-.276,3.712,3.712,0,0,1,.917-.4c.207-.075.33.034.363.236a1.1,1.1,0,0,1,.007.224,1.448,1.448,0,0,0,.28,1.128l-.493.269c-.025.163-.055.382-.092.6a2.462,2.462,0,0,1-.611,1.088,7.692,7.692,0,0,1-.948,1.3c-.08.068-.019.272-.062.4a3.377,3.377,0,0,1-.313.785,13.226,13.226,0,0,1-1.01,1.39c-.328.388-.724.723-1.087,1.083-.274.271-.535.555-.82.814a2.12,2.12,0,0,1-.558.392,8.648,8.648,0,0,0-2.392,1.959,4.755,4.755,0,0,0-.778.993,1.283,1.283,0,0,1-.785.706.18.18,0,0,0-.112.132c0,.246-.178.28-.365.358a1.014,1.014,0,0,0-.406.347c-.159.224-.263.483-.41.716a4.289,4.289,0,0,0-.606.939,3.313,3.313,0,0,1-.473,1.139c-.037.05.033.214.1.289a2.743,2.743,0,0,0,.39.333.746.746,0,0,1,.226.954,1.243,1.243,0,0,0,.119,1.354.779.779,0,0,1,.105.429.617.617,0,0,0,.373.629.506.506,0,0,1,.29.524c0,.391.04.782.063,1.173a.246.246,0,0,0,.014.11c.273.431.089.861.015,1.3a.976.976,0,0,0,.156.928c.078.084.059.292.022.428a6.456,6.456,0,0,1-.272.7c-.01.026-.044.053-.039.072.172.6-.454.827-.651,1.258a1.3,1.3,0,0,1-1.2.618,1.083,1.083,0,0,0-.85.39c-.52.512-1.106.96-1.654,1.446-.376.333-.746.675-1.1,1.032-.241.243-.2.445.05.668a1.184,1.184,0,0,1,.48.956c0,.838.1,1.676.149,2.515a.476.476,0,0,1-.134.357,2.667,2.667,0,0,1-1.03.516,8.6,8.6,0,0,0-1.605.663c-.213.1-.191.3.034.4.3.133.345.306.261.6-.165.585-.277,1.184-.42,1.775a2.6,2.6,0,0,1-.17.474c-.037.08-.1.183-.178.2a2.332,2.332,0,0,0-1.294.959.913.913,0,0,0-.191.54,1.333,1.333,0,0,1-.507,1.054c-.991.994-2.01,1.961-3.028,2.929a.768.768,0,0,1-.338.116c-.546.132-1.108.219-1.636.4a1.658,1.658,0,0,1-1.151.014,1.007,1.007,0,0,0-.636-.009,1.286,1.286,0,0,1-.5,0c-.3-.053-.587-.135-.79.191-.031.051-.149.067-.228.071a3.785,3.785,0,0,0-1.509.333.924.924,0,0,1-1.124-.271c-.39-.451-.8-.886-1.177-1.346a.675.675,0,0,1,.046-.941.76.76,0,0,0,.06-.846c-.49-.845-.972-1.695-1.454-2.544a.431.431,0,0,1-.079-.207c.027-.509-.345-.77-.681-1.056a.814.814,0,0,1-.186-.209,7.558,7.558,0,0,1-.8-1.832,7.376,7.376,0,0,1-.034-1.145,3.494,3.494,0,0,0-.162-.7c-.06-.205-.145-.4-.214-.606-.018-.052,0-.129-.032-.162-.29-.287-.143-.582-.03-.879a1.265,1.265,0,0,0-.472-1.343.594.594,0,0,1-.219-.248,3.137,3.137,0,0,1-.262-.764,4.257,4.257,0,0,0-1.147-2.158.465.465,0,0,0-.171-.148c-.386-.136-.422-.425-.4-.765.021-.316,0-.635.006-.953a2.356,2.356,0,0,1,.4-1.3,2.416,2.416,0,0,0,.367-1.634c0-.009,0-.018,0-.027-.032-.321-.078-.619.257-.868.3-.222.509-.55.79-.8a1.17,1.17,0,0,0,.305-1.165c-.03-.189-.268-.345-.4-.521a.549.549,0,0,1-.125-.231.673.673,0,0,0-.392-.6.272.272,0,0,1-.039-.475,2.61,2.61,0,0,1,.323-.237c.244-.14.221-.321.108-.524-.009-.016-.026-.03-.031-.047a8.406,8.406,0,0,0-1.033-1.659.95.95,0,0,1-.1-.58,1.048,1.048,0,0,0-.42-1.175,1.236,1.236,0,0,1-.524-.712.613.613,0,0,0-.358-.351,4.3,4.3,0,0,1-1.49-1.084c-.408-.367-.282-.868-.222-1.325a2.125,2.125,0,0,1,.293-1.148c.083-.107.045-.308.05-.466.011-.327.016-.653.02-.98a.481.481,0,0,1,.192-.467.238.238,0,0,0,.077-.2c-.051-.374-.1-.75-.187-1.117-.025-.106-.167-.191-.264-.276-.056-.049-.158-.064-.192-.12-.209-.356-.556-.3-.892-.3-.714,0-1.428,0-2.141,0a.9.9,0,0,1-.859-.622c-.039-.135-.071-.271-.109-.406a.87.87,0,0,0-.925-.681,2.171,2.171,0,0,1-1.01-.182c-.109-.053-.31.048-.461.1a2.987,2.987,0,0,1-.45.186c-.284.042-.575.039-.869.055-.117.506-.571.388-.9.442a.92.92,0,0,0-.752.383.321.321,0,0,1-.211.134,4.906,4.906,0,0,1-1.712.119A.659.659,0,0,1,14.9,33.4a.458.458,0,0,0-.414-.22,5.366,5.366,0,0,0-2.312.394,11.971,11.971,0,0,0-1.366.6.817.817,0,0,1-.817-.018c-1.187-.712-2.377-1.42-3.541-2.166A5.211,5.211,0,0,1,4.459,29.9a4.839,4.839,0,0,0-.512-.7,1.749,1.749,0,0,1-.205-.3,2.526,2.526,0,0,0-.854-1.035,1.482,1.482,0,0,1-.354-.468c-.181-.309-.366-.584-.791-.6a.343.343,0,0,1-.35-.344.312.312,0,0,0-.039-.131A1.038,1.038,0,0,1,1.3,25.306c.02-.041.048-.11.029-.133A12.571,12.571,0,0,0,.494,24.2c-.105-.1-.321-.106-.494-.157a.441.441,0,0,1,.381-.426,5.456,5.456,0,0,0,.925-.376c.067-.031.149-.17.127-.221-.094-.218.022-.385.076-.58.1-.372.147-.758.222-1.137a5.367,5.367,0,0,1,.176-.731.513.513,0,0,0-.062-.466,1.863,1.863,0,0,1-.173-.621c-.051-.358-.052-.724-.118-1.079a.409.409,0,0,0-.284-.264A.261.261,0,0,1,1,17.883,4.589,4.589,0,0,1,.924,17.1c.007-.3.027-.6.433-.717.169-.051.3-.274.41-.442a2.3,2.3,0,0,0,.364-1.075.918.918,0,0,1,.463-.707,1.462,1.462,0,0,0,.632-.924,1.2,1.2,0,0,1,.683-.912.511.511,0,0,0,.206-.216q.391-.637.766-1.282a.751.751,0,0,1,.7-.367,1.111,1.111,0,0,0,.991-.509,5.086,5.086,0,0,1,.744-.688c.274-.26.547-.522.8-.8a.371.371,0,0,0,.008-.531A.963.963,0,0,1,8.093,6.6a1.523,1.523,0,0,0,.221-.391A4.716,4.716,0,0,1,9.32,4.7a1.088,1.088,0,0,1,.775-.38,1.5,1.5,0,0,0,1.339-1.231A9.3,9.3,0,0,1,11.7,2.1c.059-.194.529-.249.741-.094.239.174.471.357.714.525a.432.432,0,0,0,.558.017.308.308,0,0,1,.187-.058c.557.022,1.116.033,1.67.086.388.037.492,0,.682-.327a.936.936,0,0,1,.735-.44,2.105,2.105,0,0,0,1.12-.429,2.159,2.159,0,0,1,.948-.3C19.58,1,20.111.97,20.636.9A.637.637,0,0,0,20.978.77,1.368,1.368,0,0,1,22.149.535a2.1,2.1,0,0,1,.517.186.92.92,0,0,0,.859-.109c.248-.171.455-.314.739-.1a.072.072,0,0,0,.055.014C24.971.3,25.7.649,26.343.254a2.5,2.5,0,0,1,.8-.234c.332-.068.439.026.516.393s.241.432.528.181c.116-.1.271-.257.368-.079a.674.674,0,0,1-.043.532c-.061.128-.253.192-.371.3a.4.4,0,0,0,.107.72.515.515,0,0,1,.055.939c-.34.161-.436.459-.588.726-.135.238.139.651.47.765.081.028.167.044.251.067.336.089.389.169.357.447.235.125.453.221.647.35a.875.875,0,0,0,.946-.005.583.583,0,0,1,.623-.088c.492.207.978.43,1.453.672a.593.593,0,0,1,.27.334,1.157,1.157,0,0,0,1.253.855A3.284,3.284,0,0,1,36,7.845a2.208,2.208,0,0,0,.434.215.55.55,0,0,0,.671-.168.088.088,0,0,1,.02-.02.836.836,0,0,0,.217-1.222c-.23-.423-.124-.656.3-.9.158-.089.3-.211.459-.291a2.973,2.973,0,0,1,1.84-.085.155.155,0,0,1,.079.034,5.878,5.878,0,0,0,1.867.885.792.792,0,0,1,.309.244.515.515,0,0,0,.674.192.8.8,0,0,1,.982.023.735.735,0,0,0,.46.131,3.335,3.335,0,0,1,1.438.442,2.441,2.441,0,0,0,.549.14c.064.01.183-.028.2-.074.137-.327.46-.327.733-.417a.432.432,0,0,0,.177-.091,1.056,1.056,0,0,1,.987-.264,1.345,1.345,0,0,1,.918.472.332.332,0,0,0,.226.089c.289.012.579.009.869.01S50.983,7.2,51.3,7.2Z" transform="translate(0 0)" fill="#fbca04"/>
        <path id="Path_5" data-name="Path 5" d="M4.114,2.441c-.035-.069-.044-.113-.069-.129a.375.375,0,0,0-.184-.068c-.03,0-.076.084-.083.134-.054.393-.094.788-.155,1.18-.016.1-.1.19-.14.291a2.693,2.693,0,0,0-.18.583,3.665,3.665,0,0,1-.186,1.028,5.4,5.4,0,0,0-.354,1.507,1.131,1.131,0,0,1-.269.769c-.027.026,0,.106-.013.153a.855.855,0,0,1-.135.273c-.093.1-.219.177-.32.275a.412.412,0,0,1-.365.166.408.408,0,0,0-.262.089.434.434,0,0,1-.666-.1.618.618,0,0,0-.106-.119A.989.989,0,0,1,.266,7.411a.416.416,0,0,0-.046-.3,2.445,2.445,0,0,1-.219-1c-.01-.046.083-.115.13-.171.071-.083.147-.162.215-.247s.109-.153.163-.229c.014-.019.038-.035.042-.056A2.084,2.084,0,0,0,.623,4.326C.6,4.246.532,4.168.536,4.092a3.085,3.085,0,0,1,.184-1.4,1,1,0,0,1,.417-.337A2.522,2.522,0,0,1,1.6,2.227c.2-.058.446-.073.575-.2s.284-.266.411-.408a.985.985,0,0,0,.155-.493A.5.5,0,0,1,3.072.7a.292.292,0,0,0,.194-.37c-.035-.211.162-.222.261-.3s.154.033.2.11c.1.16.212.317.31.481a.462.462,0,0,1,.028.535c-.023.036.037.133.07.2s.125.139.124.207c0,.254-.028.508-.053.761C4.2,2.351,4.158,2.383,4.114,2.441Z" transform="translate(63.389 58.544)" fill="#fbca04"/>
      </g>
      <circle id="Ellipse_10" data-name="Ellipse 10" cx="12" cy="12" r="12" transform="translate(682 1341)" fill="#fbca04"/>
    </g>
    <text id="Africa_" data-name="Africa," transform="matrix(0.788, -0.616, 0.616, 0.788, 5650.38, -765.896)" fill="#707070" font-size="25" font-family="Lobster-Regular, Lobster"><tspan x="0" y="25">Africa,</tspan></text>
  </g>
</svg>
